<svg xmlns="http://www.w3.org/2000/svg" width="53" height="53" fill="none" xmlns:v="https://vecta.io/nano"><path d="M22.5 2.309a8 8 0 0 1 8 0l14.95 8.631a8 8 0 0 1 4 6.928v17.262a8 8 0 0 1-4 6.928L30.5 50.691a8 8 0 0 1-8 0L7.55 42.059a8 8 0 0 1-4-6.928V17.869a8 8 0 0 1 4-6.928L22.5 2.309z" fill="#ab69fd"/><path d="M28.74 24.022h-1.049l.006 2.154 1.042-.004c.602 0 1.11-.492 1.11-1.075s-.509-1.075-1.11-1.075zm-7.607 3.374h1.734l-.863-2.286-.871 2.286zm17.872 1.284l-1.659-.958a10 10 0 0 0 .078-1.222 10.13 10.13 0 0 0-.078-1.222l1.659-.958c.355-.205.477-.66.272-1.015l-3.527-6.109c-.205-.356-.66-.477-1.016-.272l-1.652.954a10.69 10.69 0 0 0-2.124-1.219v-1.915c0-.411-.333-.743-.744-.743H23.16c-.411 0-.743.333-.743.743v1.915a10.69 10.69 0 0 0-2.124 1.219l-1.652-.954c-.356-.205-.81-.083-1.016.272L14.1 23.305c-.205.355-.083.81.272 1.015l1.659.958a9.94 9.94 0 0 0-.078 1.222 10.02 10.02 0 0 0 .078 1.222l-1.658.958c-.356.205-.477.66-.272 1.016l3.527 6.109c.205.355.66.477 1.016.272l1.652-.954a10.69 10.69 0 0 0 2.124 1.219v1.915c0 .411.333.743.743.743h7.054c.411 0 .743-.333.743-.743v-1.915a10.69 10.69 0 0 0 2.124-1.219l1.652.954c.355.205.81.084 1.016-.272l3.527-6.109c.205-.356.084-.81-.272-1.016zm-14.203 1.737a.74.74 0 0 1-.262.048c-.3 0-.583-.183-.696-.481l-.416-1.101h-2.861l-.42 1.103c-.146.384-.576.576-.959.43s-.576-.576-.43-.959l2.426-6.369c.067-.164.18-.304.327-.402s.319-.151.496-.151h.001a.89.89 0 0 1 .495.15c.146.098.261.238.327.401l2.406 6.373c.145.384-.049.813-.433.958zm3.939-2.759l-1.051.004v2.059c0 .411-.333.744-.743.744s-.744-.333-.744-.744V23.28a.75.75 0 0 1 .056-.285c.037-.09.092-.173.161-.242a.75.75 0 0 1 .242-.162c.091-.038.187-.057.285-.057h1.794c1.432 0 2.597 1.149 2.597 2.562s-1.165 2.562-2.597 2.562zm5.036 2.063c0 .411-.333.744-.743.744s-.743-.333-.743-.744v-6.443c0-.411.333-.744.743-.744s.743.333.743.744v6.443z" fill="#fff"/></svg>