<svg xmlns="http://www.w3.org/2000/svg" width="28" height="30" fill="none" xmlns:v="https://vecta.io/nano"><g clip-path="url(#A)"><path fill-rule="evenodd" d="M23.439.636H4.815a2.74 2.74 0 0 0-1.093.228 2.84 2.84 0 0 0-.925.649c-.264.278-.474.608-.616.971a3.09 3.09 0 0 0-.211 1.143v19.605a3.04 3.04 0 0 0 .833 2.102c.534.557 1.257.871 2.012.871h15.761l-.73-2.667 1.824 1.715 1.678 1.619 2.992 2.762V3.608c0-.395-.075-.786-.222-1.151s-.361-.695-.631-.971-.59-.494-.942-.64a2.74 2.74 0 0 0-1.106-.21zm-5.363 18.938l-.912-1.181a4.37 4.37 0 0 0 2.499-1.715 8.71 8.71 0 0 1-1.587.857 8.7 8.7 0 0 1-2.025.61 9.47 9.47 0 0 1-3.648 0 12.77 12.77 0 0 1-2.043-.629c-.352-.137-.694-.303-1.022-.495h-.109l-.383-.248c.595.847 1.452 1.453 2.426 1.715l-.93 1.2a4.84 4.84 0 0 1-2.381-.551c-.738-.386-1.374-.955-1.851-1.659.045-2.936.731-5.823 2.007-8.44 1.12-.916 2.483-1.449 3.904-1.524l.128.171c-1.335.349-2.58.999-3.648 1.905l.821-.419c.998-.48 2.064-.789 3.156-.915h.237c.933-.114 1.876-.114 2.809 0A10.62 10.62 0 0 1 19.7 9.647c-1.013-.885-2.194-1.534-3.466-1.905l.201-.229c1.421.075 2.784.608 3.904 1.524 1.276 2.617 1.962 5.504 2.006 8.44-.482.703-1.121 1.271-1.862 1.657s-1.561.575-2.388.553l-.018-.114zm-6.457-6.763a1.48 1.48 0 0 0-.883.202c-.268.159-.484.398-.62.687s-.185.614-.141.933a1.63 1.63 0 0 0 .387.854 1.52 1.52 0 0 0 .781.477 1.47 1.47 0 0 0 .902-.066c.287-.116.535-.32.709-.585a1.65 1.65 0 0 0 .27-.901c.015-.406-.124-.802-.387-1.102s-.629-.479-1.017-.499zm5.071 0a1.48 1.48 0 0 0-.883.202c-.268.159-.484.398-.62.687s-.185.614-.141.933a1.63 1.63 0 0 0 .387.854 1.52 1.52 0 0 0 .781.477 1.47 1.47 0 0 0 .902-.066c.287-.116.535-.32.709-.585a1.65 1.65 0 0 0 .27-.901 1.61 1.61 0 0 0-.084-.597 1.56 1.56 0 0 0-.297-.517c-.13-.15-.288-.273-.464-.359a1.43 1.43 0 0 0-.56-.146v.019z" fill="#ab69fd"/></g><defs><clipPath id="A"><path fill="#fff" transform="translate(.255 .617)" d="M0 0h27.745v28.978H0z"/></clipPath></defs></svg>