<svg xmlns="http://www.w3.org/2000/svg" width="32" height="31" fill="none" xmlns:v="https://vecta.io/nano"><g clip-path="url(#A)"><path fill-rule="evenodd" d="M31.148 15.186c-.02-2.882-.864-5.699-2.433-8.117s-3.797-4.337-6.421-5.53S16.76-.071 13.906.337 8.375 1.96 6.19 3.84s-3.786 4.346-4.615 7.107-.851 5.701-.062 8.474 2.353 5.262 4.51 7.174 4.816 3.167 7.663 3.617V19.597H9.859v-4.411h3.827v-3.283a5.34 5.34 0 0 1 .206-2.351c.243-.758.653-1.453 1.2-2.032s1.216-1.029 1.959-1.316 1.541-.404 2.335-.343c1.133.015 2.264.109 3.384.282v3.746h-1.893c-.327-.044-.66-.013-.973.089s-.6.274-.838.503-.422.507-.537.816-.16.64-.129.969v2.84h4.189l-.665 4.411h-3.525v10.614c3.551-.577 6.781-2.396 9.116-5.133s3.622-6.214 3.633-9.811z" fill="#ab69fd"/></g><defs><clipPath id="A"><path fill="#fff" transform="translate(.937)" d="M0 0h30.212v30.212H0z"/></clipPath></defs></svg>