<svg xmlns="http://www.w3.org/2000/svg" width="29" height="30" fill="none" xmlns:v="https://vecta.io/nano"><g clip-path="url(#A)" fill-rule="evenodd" fill="#ab69fd"><path d="M14.649 7.785a7.21 7.21 0 0 0-4.067 1.247 7.44 7.44 0 0 0-2.704 3.346 7.62 7.62 0 0 0-.429 4.317 7.52 7.52 0 0 0 1.991 3.832c1.02 1.048 2.321 1.764 3.739 2.056a7.17 7.17 0 0 0 4.227-.413 7.35 7.35 0 0 0 3.29-2.743 7.59 7.59 0 0 0 1.245-4.148c.003-.981-.184-1.954-.549-2.862s-.901-1.733-1.579-2.429-1.482-1.249-2.368-1.627a7.18 7.18 0 0 0-2.797-.577zm0 12.31c-.936 0-1.852-.284-2.63-.815s-1.385-1.287-1.744-2.171-.452-1.856-.269-2.795a4.87 4.87 0 0 1 1.296-2.477 4.71 4.71 0 0 1 2.424-1.324 4.64 4.64 0 0 1 2.735.275c.865.366 1.604.986 2.125 1.781a4.91 4.91 0 0 1 .798 2.687 4.9 4.9 0 0 1-.355 1.854 4.82 4.82 0 0 1-1.026 1.572 4.71 4.71 0 0 1-1.539 1.048c-.576.242-1.192.365-1.815.362zm9.233-12.659a1.77 1.77 0 0 1-.288.968 1.71 1.71 0 0 1-.766.642 1.67 1.67 0 0 1-.986.099c-.331-.067-.635-.233-.873-.477a1.76 1.76 0 0 1-.467-.892 1.78 1.78 0 0 1 .097-1.007 1.73 1.73 0 0 1 .628-.782 1.68 1.68 0 0 1 .948-.294c.453 0 .886.184 1.206.511s.5.77.5 1.233zM14.649.726H8.785a10.46 10.46 0 0 0-3.455.675 7.03 7.03 0 0 0-2.516 1.678A7.23 7.23 0 0 0 1.172 5.65a11.74 11.74 0 0 0-.746 3.53v11.984c.063 1.21.315 2.401.746 3.53a7.32 7.32 0 0 0 1.642 2.593 7.28 7.28 0 0 0 2.516 1.656 9.93 9.93 0 0 0 3.455.675h11.729a9.94 9.94 0 0 0 3.369-.697 6.71 6.71 0 0 0 2.516-1.656 7.31 7.31 0 0 0 1.749-2.571 11.1 11.1 0 0 0 .661-3.508V9.179c-.028-1.206-.251-2.399-.661-3.53-.37-.992-.942-1.893-1.677-2.644a7.36 7.36 0 0 0-2.588-1.713c-1.12-.384-2.295-.576-3.476-.566-1.918.099-3.84.099-5.758 0zm0 2.615h5.736a7.91 7.91 0 0 1 2.644.501c.616.242 1.175.613 1.642 1.09a4.83 4.83 0 0 1 1.067 1.677 8.15 8.15 0 0 1 .491 2.68v11.744a8.39 8.39 0 0 1-.491 2.702 4.82 4.82 0 0 1-1.067 1.677 4.72 4.72 0 0 1-1.642 1.09c-.849.31-1.743.472-2.644.479H8.955c-.901-.007-1.795-.169-2.644-.479-.616-.242-1.175-.613-1.642-1.09a4.83 4.83 0 0 1-1.067-1.677c-.31-.866-.476-1.779-.49-2.702V9.288a8.14 8.14 0 0 1 .448-2.68 4.82 4.82 0 0 1 1.067-1.677 4.72 4.72 0 0 1 1.642-1.09 7.91 7.91 0 0 1 2.687-.501h5.694z"/></g><defs><clipPath id="A"><path fill="#fff" transform="translate(.469 .617)" d="M0 0h28.362v28.978H0z"/></clipPath></defs></svg>