<svg xmlns="http://www.w3.org/2000/svg" width="29" height="31" fill="none" xmlns:v="https://vecta.io/nano"><g clip-path="url(#A)"><path fill-rule="evenodd" d="M25.265 5.694c.6.168 1.146.497 1.585.955s.755 1.029.916 1.654c.415 2.342.609 4.72.578 7.101a41.07 41.07 0 0 1-.578 7.101c-.164.624-.481 1.193-.919 1.651s-.984.788-1.582.959a83.42 83.42 0 0 1-11.093.604c-3.707.047-7.413-.166-11.093-.639a3.49 3.49 0 0 1-1.584-.946c-.439-.455-.755-1.023-.917-1.646a44.1 44.1 0 0 1 0-14.203c.163-.627.479-1.198.918-1.659a3.56 3.56 0 0 1 1.583-.969 81.04 81.04 0 0 1 11.093-.621 78.81 78.81 0 0 1 11.093.657zm-6.533 9.729l-7.384 4.438v-8.877l7.384 4.438z" fill="#ab69fd"/></g><defs><clipPath id="A"><path fill="#fff" transform="translate(0 .617)" d="M0 0h28.362v29.595H0z"/></clipPath></defs></svg>