<svg xmlns="http://www.w3.org/2000/svg" width="92" height="92" fill="none" xmlns:v="https://vecta.io/nano"><circle cx="46" cy="46" r="46" fill="#9d53f9"/><mask id="A" maskUnits="userSpaceOnUse" x="22" y="22" width="49" height="49"><path d="M22 22H71V71H22V22Z" fill="#fff"/></mask><g mask="url(#A)"><path d="M59.976 61.813h4.9v4.083h-12.25v-12.25h4.083v5.574c3.736-3.001 6.125-7.575 6.125-12.72 0-8.31-6.248-15.19-14.292-16.19v-4.124c10.31 1.021 18.375 9.718 18.375 20.315 0 6.105-2.695 11.576-6.942 15.313zM30.167 46.5c0-5.145 2.389-9.739 6.125-12.72v5.574h4.083v-12.25h-12.25v4.083h4.9c-2.181 1.91-3.929 4.265-5.126 6.906s-1.816 5.507-1.815 8.407c0 10.596 8.065 19.294 18.375 20.315v-4.124C36.415 61.69 30.167 54.81 30.167 46.5zm24.99-7.942L43.602 50.114l-5.778-5.778-2.879 2.879 8.657 8.657 14.435-14.435-2.879-2.879z" fill="#fff"/></g></svg>