<svg xmlns="http://www.w3.org/2000/svg" width="92" height="92" fill="none" xmlns:v="https://vecta.io/nano"><circle cx="46" cy="46" r="46" fill="#9d53f9"/><path d="M71 46c0-2.075-1.582-3.77-3.601-3.989a21.78 21.78 0 0 0-3.448-8.32c.584-.71.904-1.599.907-2.518 0-1.077-.419-2.09-1.181-2.851-1.468-1.468-3.785-1.547-5.368-.273A21.78 21.78 0 0 0 49.99 24.6C49.769 22.582 48.075 21 46 21s-3.769 1.582-3.989 3.601c-2.984.557-5.818 1.732-8.321 3.449-1.581-1.274-3.9-1.195-5.368.273-.376.373-.673.818-.876 1.307s-.306 1.014-.305 1.544c0 .931.33 1.804.907 2.518a21.78 21.78 0 0 0-3.448 8.32C22.582 42.23 21 43.924 21 46s1.582 3.77 3.601 3.989a21.78 21.78 0 0 0 3.448 8.32c-.584.71-.904 1.599-.907 2.518 0 1.077.419 2.09 1.181 2.851a4.02 4.02 0 0 0 2.852 1.179 4.01 4.01 0 0 0 2.516-.906c2.503 1.717 5.338 2.891 8.322 3.448C42.23 69.418 43.924 71 46 71s3.769-1.582 3.989-3.601a21.79 21.79 0 0 0 8.322-3.448c.711.58 1.599.9 2.516.906a4.02 4.02 0 0 0 2.852-1.179c.376-.373.673-.818.876-1.307s.306-1.014.305-1.544c-.003-.919-.324-1.808-.907-2.518a21.78 21.78 0 0 0 3.448-8.32C69.418 49.77 71 48.076 71 46zM58.301 57.71l-3.94-3.335a3.98 3.98 0 0 0 .511-1.923c0-.245-.031-.482-.073-.715l8.806-3.523c.518.777 1.29 1.35 2.184 1.621a20.16 20.16 0 0 1-3.085 7.444c-.695-.367-1.483-.522-2.265-.445s-1.525.381-2.136.876zm-24.276.266c-.203-.201-.426-.38-.666-.534l3.293-9.877c.158.019.314.048.477.048.536 0 1.066-.107 1.56-.316s.941-.513 1.315-.897l7.088 4.586c-.186.466-.282.963-.285 1.465 0 .293.035.577.094.852l-12.303 5.413c-.161-.268-.354-.517-.573-.74zm-4.728-.696a20.16 20.16 0 0 1-3.085-7.443c1.64-.507 2.843-2.016 2.851-3.819l4.351-.87a4.04 4.04 0 0 0 1.707 1.91l-3.269 9.806c-.874-.146-1.773.001-2.555.418zm1.877-22.077c.364 0 .725-.067 1.079-.165l2.481 5.317c-.504.371-.914.854-1.198 1.411s-.434 1.173-.438 1.798l-4.351.87a4.04 4.04 0 0 0-2.535-2.27 20.16 20.16 0 0 1 3.085-7.443 4.03 4.03 0 0 0 1.877.483zm2.852-1.179a4.07 4.07 0 0 0 .481-.584l10.748 3.908c-.029.194-.06.386-.06.587a4.02 4.02 0 0 0 .12.936l-4.96 2.315c-.736-.989-1.902-1.638-3.225-1.638-.323 0-.634.048-.935.12l-2.506-5.369c.113-.09.232-.17.337-.275zm23.95 0a4.02 4.02 0 0 0 2.852 1.179c.648 0 1.29-.173 1.877-.483 1.519 2.248 2.568 4.78 3.086 7.444-.832.254-1.558.771-2.072 1.473L53.15 38.833c.065-.29.108-.588.108-.898-.005-.426-.079-.848-.219-1.251l4.846-2.769c.032.035.056.076.09.109zm-6.769 14.432l-.744-6.703c.808-.26 1.514-.769 2.015-1.455l10.568 4.803c-.07.294-.107.595-.109.898 0 .245.031.482.073.715l-8.806 3.522a4.02 4.02 0 0 0-2.997-1.781zm-2.347-6.526l.744 6.703c-.618.196-1.18.538-1.638.998l-7.089-4.587a3.99 3.99 0 0 0 .285-1.463 4.02 4.02 0 0 0-.12-.935L46 40.331c.337.453.766.829 1.259 1.105s1.038.444 1.6.495zm.977-15.718a20.18 20.18 0 0 1 7.442 3.084 3.99 3.99 0 0 0-.484 1.877c0 .474.094.931.251 1.365l-4.805 2.746c-.739-.84-1.81-1.382-3.014-1.382-.059 0-.114.015-.173.018l-1.316-5.265c.499-.241.943-.582 1.304-1.003a4.03 4.03 0 0 0 .794-1.441zM46 29.065c.059 0 .114-.014.173-.018l1.316 5.265a4.04 4.04 0 0 0-1.687 1.52L35.13 31.952c.049-.254.076-.514.076-.778a3.99 3.99 0 0 0-.484-1.877c2.248-1.518 4.779-2.567 7.442-3.084.509 1.645 2.026 2.852 3.836 2.852zm-3.836 36.723a20.17 20.17 0 0 1-7.442-3.084 3.99 3.99 0 0 0 .484-1.877c0-.201-.029-.395-.057-.59l12.407-5.46a4.04 4.04 0 0 0 1.274 1.15l-2.352 7.057c-.159-.019-.315-.048-.478-.048-1.81 0-3.327 1.207-3.836 2.852zm5.844-2.296l2.352-7.056c.158.019.314.048.477.048.902-.004 1.776-.313 2.48-.877l3.956 3.347c-.311.575-.476 1.218-.481 1.872 0 .669.179 1.304.484 1.878a20.17 20.17 0 0 1-7.442 3.084 4.03 4.03 0 0 0-1.827-2.297z" fill="#fff"/></svg>