<svg xmlns="http://www.w3.org/2000/svg" width="92" height="92" fill="none" xmlns:v="https://vecta.io/nano"><circle cx="46" cy="46" r="46" fill="#9d53f9"/><path fill-rule="evenodd" d="M59.486 28.359c5.289 1.227 7.312 4.32 9.848 8.576h-9.848v-8.576zm-30.908 8.934c1.036 0 1.787.5 1.787 1.668 0 .985-.797 1.784-1.782 1.787H17.787A1.79 1.79 0 0 0 16 42.535c0 .987.8 1.787 1.787 1.787h16.084c.996 0 1.794.799 1.794 1.787s-.8 1.787-1.787 1.787H17.787c-.987 0-1.787.8-1.787 1.787s.8 1.787 1.787 1.787h3.932v5.361c0 .987.8 1.787 1.787 1.787h3.592c.64 3.154 3.428 5.48 6.713 5.48s6.073-2.326 6.713-5.48h18.146c.64 3.154 3.428 5.48 6.713 5.48s6.073-2.326 6.713-5.48h3.116c.987 0 1.787-.8 1.787-1.787V46.109c0-5.244-5.531-5.592-5.536-5.6H57.699c-.987 0-1.787-.8-1.787-1.787V28H23.506c-.987 0-1.787.8-1.787 1.787v3.932h-2.145c-.987 0-1.787.8-1.787 1.787s.8 1.787 1.787 1.787h9.004zm39.122 17.639a3.28 3.28 0 0 1 0 4.634c-2.058 2.058-5.593.594-5.593-2.317s3.535-4.375 5.593-2.317zm-31.572 0a3.28 3.28 0 0 1 0 4.634c-2.058 2.058-5.593.594-5.593-2.317s3.535-4.375 5.593-2.317z" fill="#fff"/></svg>