<svg xmlns="http://www.w3.org/2000/svg" width="92" height="92" fill="none" xmlns:v="https://vecta.io/nano"><circle cx="46" cy="46" r="46" fill="#9d53f9"/><path d="M49.895 51.614c.161.08.241.08.402.08s.321 0 .402-.08c8.76-5.384 14.626-12.537 15.349-18.725.321-2.813-.482-5.304-2.25-7.152s-4.179-2.813-6.751-2.732c-2.491.08-4.822 1.045-6.751 2.893-1.929-1.848-4.259-2.813-6.751-2.893-2.572-.08-4.902.884-6.751 2.732s-2.572 4.259-2.25 7.152c.804 6.188 6.67 13.34 15.349 18.725zM20 68.25h9.081V50.73h-7.715L20 68.25zm51.111-12.296c-.562-.804-1.607-1.125-2.491-.723l-13.983 6.349h-.08l-.08.08c-.402.161-.884.321-1.366.321H40.653c.482-.964 1.447-1.688 2.652-1.688h9.885c.241 0 .402-.08.643-.161l.08-.08c.161-.08.241-.161.322-.241.161-.241.482-.562.482-1.125 0-.804-.723-1.527-1.527-1.527h-7.635c-.643 0-1.366-.161-1.929-.482l-6.429-3.375c-.321-.161-.723-.321-1.125-.321h-5.143v12.858h3.536a4.55 4.55 0 0 1 1.447.241l10.045 3.616c1.366.482 2.813.402 4.018-.322l20.412-10.769c.643-.322 1.045-1.045 1.045-1.768 0-.241-.08-.563-.322-.884z" fill="#fff"/></svg>