<svg xmlns="http://www.w3.org/2000/svg" width="92" height="92" fill="none" xmlns:v="https://vecta.io/nano"><circle cx="46" cy="46" r="46" fill="#9d53f9"/><path d="M62.528 45.712h5.749c.754 0 1.367-.611 1.367-1.367s-.612-1.366-1.367-1.366h-5.206c.655-4.129.351-6.921.333-7.071-.03-.264-.137-.514-.307-.718a1.36 1.36 0 0 0-.65-.432l-5.46-1.913v-3.378h4.693c.564 1.591 2.084 2.733 3.865 2.733 2.26 0 4.099-1.839 4.099-4.1s-1.84-4.1-4.1-4.1c-1.781 0-3.301 1.142-3.865 2.733H55.62c-.755 0-1.367.611-1.367 1.366v3.556c-5.065-2.391-6.744-4.353-6.845-4.475a1.33 1.33 0 0 0-2.174 0c-.101.122-1.78 2.084-6.845 4.475V28.1c0-.755-.611-1.366-1.366-1.366h-6.059C30.4 25.142 28.881 24 27.1 24c-2.261 0-4.1 1.838-4.1 4.1s1.839 4.1 4.099 4.1c1.781 0 3.301-1.142 3.865-2.733h4.693v3.378l-5.46 1.913c-.519.159-.895.61-.957 1.151-.017.15-.322 2.943.333 7.071h-5.206c-.754 0-1.366.612-1.366 1.366a1.37 1.37 0 0 0 1.366 1.367h5.749c.299 1.243.648 2.438 1.112 3.74h-3.754c-.754 0-1.366.611-1.366 1.367s.612 1.367 1.366 1.367h4.857a35.87 35.87 0 0 0 4.337 7.203h-5.704c-.564-1.591-2.083-2.733-3.865-2.733-2.26 0-4.099 1.839-4.099 4.099s1.839 4.1 4.099 4.1c1.781 0 3.301-1.142 3.865-2.733h8.034c1.925 2.053 4.11 3.937 6.542 5.633.47.328 1.093.328 1.563 0 2.432-1.695 4.617-3.58 6.542-5.633h8.034c.564 1.591 2.084 2.733 3.865 2.733 2.26 0 4.099-1.839 4.099-4.1s-1.839-4.099-4.099-4.099c-1.781 0-3.301 1.142-3.865 2.733h-5.704a35.86 35.86 0 0 0 4.337-7.203h4.857a1.37 1.37 0 0 0 1.367-1.367c0-.755-.612-1.367-1.367-1.367h-3.754a35.54 35.54 0 0 0 1.112-3.74zm-8.686 7c0 1.374-1.117 2.491-2.491 2.491H41.293c-1.374 0-2.491-1.117-2.491-2.491v-7.826c0-1.086.698-2.011 1.669-2.351v-.889a5.86 5.86 0 0 1 5.85-5.85 5.86 5.86 0 0 1 5.851 5.85v.889c.971.341 1.669 1.265 1.669 2.351v7.826zm-12.307-7.583v7.341h9.573v-7.341h-9.573zm6.153 4.152c0 .755-.612 1.367-1.367 1.367s-1.367-.611-1.367-1.367v-.964c0-.755.612-1.367 1.367-1.367s1.367.611 1.367 1.367v.964zm1.751-7.635v.75h-6.235v-.75a3.12 3.12 0 0 1 3.117-3.117 3.12 3.12 0 0 1 3.117 3.117z" fill="#fff"/></svg>