<svg xmlns="http://www.w3.org/2000/svg" width="92" height="92" fill="none" xmlns:v="https://vecta.io/nano"><circle cx="46" cy="46" r="46" fill="#9d53f9"/><path d="M41.756 47.333h8V50h-8v-2.667zM59.923 50h-7.5v1.333a1.33 1.33 0 0 1-1.333 1.333H40.422a1.33 1.33 0 0 1-1.333-1.333V50h-7.5a3.99 3.99 0 0 1-2.339-.754 4 4 0 0 1-1.455-1.98L23 32.881V62c0 2.206 1.794 4 4 4h37.511c2.206 0 4-1.794 4-4V32.882l-4.794 14.384c-.265.797-.774 1.489-1.455 1.98a3.99 3.99 0 0 1-2.339.754h0zm-8.834-24H40.422c-2.206 0-4 1.794-4 4v1.333H25.294l5.029 15.089a1.33 1.33 0 0 0 .486.66c.228.164.5.252.78.251h7.501V46a1.33 1.33 0 0 1 1.333-1.333H51.09A1.33 1.33 0 0 1 52.423 46v1.333h7.5c.574 0 1.083-.366 1.266-.911l5.029-15.089H55.089V30c0-2.206-1.794-4-4-4zm-12 5.333V30c0-.736.598-1.333 1.333-1.333h10.667c.736 0 1.333.598 1.333 1.333v1.333H39.089z" fill="#fff"/></svg>