<svg xmlns="http://www.w3.org/2000/svg" width="167" height="47" fill="none" xmlns:v="https://vecta.io/nano"><path d="M27.957.244L0 13.191l6.966 26.51 5.302-.651-1.458-16.669 1.741-.776 3.006 17.04 9.061-1.112-1.611-18.398 1.724-.767 3.306 18.746 9.165-1.126-1.763-20.167 1.744-.776 3.615 20.501 9.06-1.112V5.73L27.957.244zm.657 40.207l.461 2.61 20.782 3.465v-8.684l-21.232 2.61h-.011zm40.898-5.44v3.575h4.407a4.2 4.2 0 0 1-.543 2.069 3.68 3.68 0 0 1-1.585 1.446 5.66 5.66 0 0 1-2.519.509 4.96 4.96 0 0 1-2.83-.793 5.06 5.06 0 0 1-1.823-2.304c-.457-1.165-.675-2.409-.643-3.66-.033-1.241.19-2.475.657-3.626.381-.917 1.02-1.703 1.84-2.264a4.89 4.89 0 0 1 2.78-.787 5.47 5.47 0 0 1 1.517.201c.439.126.854.326 1.226.592.353.254.658.57.9.931a4.42 4.42 0 0 1 .566 1.257h4.888c-.128-1.026-.461-2.015-.979-2.91-.516-.882-1.193-1.66-1.996-2.293-.841-.658-1.79-1.164-2.805-1.497a10.73 10.73 0 0 0-3.414-.527c-1.356-.011-2.701.239-3.963.736a9.23 9.23 0 0 0-3.216 2.154c-.95.991-1.683 2.167-2.154 3.456a13.06 13.06 0 0 0-.773 4.653c0 2.253.428 4.196 1.285 5.828a9.17 9.17 0 0 0 3.592 3.756c1.555.829 3.282 1.283 5.044 1.324s3.509-.331 5.101-1.087c1.377-.699 2.524-1.78 3.303-3.114.802-1.357 1.202-2.98 1.2-4.868v-2.763l-9.063.003zm60.864 11.551V25.209h14.626v3.951h-9.8v4.744h7.923v3.951h-7.923v4.755h9.822v3.951h-14.648zm28.823-15.086a2.54 2.54 0 0 0-.295-1.049c-.173-.324-.414-.608-.707-.83-.591-.45-1.415-.674-2.459-.674-.604-.02-1.205.076-1.772.283a2.44 2.44 0 0 0-1.084.787 1.9 1.9 0 0 0-.377 1.132 1.75 1.75 0 0 0 .224.931c.168.282.401.52.679.693.327.212.679.382 1.047.507a11.37 11.37 0 0 0 1.314.371l1.876.436a13.34 13.34 0 0 1 2.675.872c.745.332 1.433.779 2.038 1.325.555.505.997 1.121 1.297 1.809a5.76 5.76 0 0 1 .455 2.346 5.84 5.84 0 0 1-1.002 3.428 6.38 6.38 0 0 1-2.873 2.222 11.69 11.69 0 0 1-4.509.781 12.09 12.09 0 0 1-4.577-.795c-1.229-.478-2.286-1.314-3.034-2.4-.723-1.068-1.1-2.4-1.132-3.997h4.65a3.02 3.02 0 0 0 1.996 2.813c.654.248 1.35.37 2.049.357a5.22 5.22 0 0 0 1.885-.309 2.83 2.83 0 0 0 1.226-.849c.287-.361.443-.807.444-1.268a1.74 1.74 0 0 0-.402-1.132 3.07 3.07 0 0 0-1.171-.795c-.632-.257-1.284-.46-1.951-.606l-2.284-.552c-1.821-.434-3.258-1.119-4.311-2.055s-1.575-2.204-1.568-3.804c-.033-1.228.337-2.433 1.053-3.431a7 7 0 0 1 2.924-2.296 10.4 10.4 0 0 1 4.246-.824c1.45-.033 2.891.248 4.223.824 1.131.492 2.102 1.29 2.805 2.304a6.1 6.1 0 0 1 1.019 3.431l-4.617.014zm-32.265 15.087h-4.775V30.33l-.489-.006-4.824 16.239h-4.772l-4.693-16.239-.608.006v16.233h-4.775V25.209h8.115l4.098 14.311h.496l4.098-14.311h8.129v21.353zm-32.454 0h5.171l-7.17-21.35h-6.553l-7.181 21.35h5.18l1.395-4.682h7.761l1.395 4.682zm-8.047-8.407l2.327-7.826h.877l2.338 7.826h-5.542zm78.852-10.688a1.13 1.13 0 0 1-.623-.189c-.185-.123-.329-.297-.416-.501a1.14 1.14 0 0 1 0-.878c.057-.134.138-.256.241-.359s.226-.185.359-.243c.282-.113.596-.113.878 0a1.16 1.16 0 0 1 .359.243c.103.103.186.225.244.359a1.14 1.14 0 0 1 0 .878c-.058.134-.141.256-.244.36s-.225.186-.359.243a1.13 1.13 0 0 1-.439.088zm0-.308c.146.002.29-.036.416-.11.121-.068.223-.165.297-.283.073-.126.111-.268.111-.413a.82.82 0 0 0-.111-.413c-.075-.118-.178-.215-.3-.283s-.268-.11-.413-.11-.288.038-.413.11a.84.84 0 0 0-.283.283c-.075.125-.114.268-.114.413s.039.288.114.413a.84.84 0 0 0 .283.283.8.8 0 0 0 .413.11zm-.413-.326v-1.039h.504a.43.43 0 0 1 .195.042c.055.026.101.067.133.119a.35.35 0 0 1 .048.187c.002.066-.016.131-.051.187a.28.28 0 0 1-.136.116.44.44 0 0 1-.198.04h-.34v-.204h.284c.037.002.073-.01.101-.034.014-.014.024-.03.031-.048s.01-.037.009-.056-.001-.039-.008-.057-.018-.034-.032-.048c-.028-.024-.064-.036-.101-.034h-.156v.829h-.283zm.676-.476l.232.476h-.314l-.212-.476h.294zM79.937.442h4.826v21.353h-4.826V.442zm27.745 10.677c0 2.344-.444 4.325-1.333 5.944a9.25 9.25 0 0 1-3.62 3.728 10.92 10.92 0 0 1-10.278 0 9.27 9.27 0 0 1-3.62-3.736c-.889-1.634-1.333-3.616-1.333-5.944s.444-4.315 1.333-5.958c.824-1.558 2.076-2.849 3.609-3.719A10.94 10.94 0 0 1 97.578.151c1.792 0 3.556.44 5.139 1.282a9.25 9.25 0 0 1 3.62 3.728c.889 1.63 1.333 3.616 1.333 5.958m-4.911 0a9.44 9.44 0 0 0-.631-3.68 4.95 4.95 0 0 0-1.792-2.264c-.828-.509-1.781-.778-2.753-.778s-1.925.269-2.753.778c-.81.56-1.436 1.348-1.797 2.264-.851 2.379-.851 4.98 0 7.359a4.95 4.95 0 0 0 1.797 2.264c.828.509 1.781.778 2.753.778s1.925-.27 2.753-.778a4.93 4.93 0 0 0 1.792-2.264c.453-1.172.667-2.423.631-3.68zm-32.964 3.232l2.48 7.444h5.296l-2.757-8.019h-3.745l-.224-.691c.713-.139 1.933-.354 3.014-1.09a5.66 5.66 0 0 0 2.477-4.639c.032-1.265-.287-2.515-.923-3.609a6.2 6.2 0 0 0-2.649-2.446c-1.297-.6-2.715-.891-4.144-.849h-8.613v21.342h4.829v-7.444h4.959zm-.091-4.418a5.48 5.48 0 0 1-2.055.334h-2.814V4.363h2.805c.701-.02 1.398.099 2.052.351a2.58 2.58 0 0 1 1.245 1.047 2.83 2.83 0 0 1 .425 1.596 2.73 2.73 0 0 1-.419 1.571 2.51 2.51 0 0 1-1.24 1.005zM108.137.442v3.963h8.293l.227.693c-.702.136-1.888.345-2.952 1.047v15.655h4.775V4.394h5.553V.431l-15.896.011z" fill="#fff"/></svg>