<svg xmlns="http://www.w3.org/2000/svg" width="53" height="53" fill="none" xmlns:v="https://vecta.io/nano"><path d="M22.5 2.309a8 8 0 0 1 8 0l14.95 8.631a8 8 0 0 1 4 6.928v17.262a8 8 0 0 1-4 6.928L30.5 50.691a8 8 0 0 1-8 0L7.55 42.059a8 8 0 0 1-4-6.928V17.869a8 8 0 0 1 4-6.928L22.5 2.309z" fill="#ab69fd"/><g fill="#fff"><path d="M26.5 32.09c1.311 0 2.373-1.062 2.373-2.373s-1.062-2.373-2.373-2.373-2.373 1.062-2.373 2.373 1.062 2.373 2.373 2.373z"/><path d="M26.5 32.09a3.96 3.96 0 0 0-3.955 3.955V40h7.91v-3.955A3.96 3.96 0 0 0 26.5 32.09zM40 23.389l-6.381-4.635v3.053h-2.373c-1.7 0-3.414.685-4.75 2.132-.523.604-.921 1.293-1.188 2.027a3.9 3.9 0 0 1 1.192-.204 3.92 3.92 0 0 1 2.113.624 3.16 3.16 0 0 1 2.633-1.415h2.373v3.053L40 23.389zm-15.082-2.497a7.71 7.71 0 0 1 .813.407c.263.144.519.334.774.524.269-.203.539-.399.816-.551.245-.141.503-.259.762-.373v-1.466h3.053L26.5 13l-4.635 6.434h3.053v1.459zm-1.192 4.794l.096-.262c.338-.929.834-1.774 1.473-2.513-1.015-.674-2.104-1.105-3.541-1.105h-2.373v-3.053L13 23.389l6.381 4.635v-3.053h2.373c.751 0 1.43.277 1.972.716z"/></g></svg>