<svg xmlns="http://www.w3.org/2000/svg" width="53" height="53" fill="none" xmlns:v="https://vecta.io/nano"><path d="M22.5 2.309a8 8 0 0 1 8 0l14.95 8.631a8 8 0 0 1 4 6.928v17.262a8 8 0 0 1-4 6.928L30.5 50.691a8 8 0 0 1-8 0L7.55 42.059a8 8 0 0 1-4-6.928V17.869a8 8 0 0 1 4-6.928L22.5 2.309z" fill="#ab69fd"/><path d="M18.143 32.5h-3.714a.93.93 0 0 1-.929-.929.93.93 0 0 1 .929-.928h3.714a.93.93 0 0 1 .928.928.93.93 0 0 1-.928.929zM20 28.786h-2.786a.93.93 0 0 1-.929-.929.93.93 0 0 1 .929-.928H20a.93.93 0 0 1 .929.928.93.93 0 0 1-.929.929zm0 7.429h-2.786a.93.93 0 0 1-.929-.929.93.93 0 0 1 .929-.929H20a.93.93 0 0 1 .929.929.93.93 0 0 1-.929.929zm3.769-3.714h-1.912a.93.93 0 0 0-.928.929.93.93 0 0 0 .928.928h2.345c-.215-.6-.361-1.223-.433-1.857zm.433-3.714h-2.345a.93.93 0 0 0-.928.929.93.93 0 0 0 .928.929h1.912a8.25 8.25 0 0 1 .433-1.857zm13.944-2.905a.92.92 0 0 0 .425.119.93.93 0 0 0 .657-1.585l-.928-.928a.93.93 0 0 0-1.313 0c-.138.14-.228.321-.255.516a.92.92 0 0 0 .102.566l-.757.757a7.39 7.39 0 0 0-3.076-1.118v-.993h.929a.93.93 0 0 0 .928-.929.93.93 0 0 0-.928-.929h-3.714a.93.93 0 0 0-.929.929.93.93 0 0 0 .929.929h.929v.994a7.37 7.37 0 0 0-3.076 1.117l-.757-.757c.094-.173.13-.371.102-.566a.92.92 0 0 0-.255-.516.93.93 0 0 0-1.313 0l-.929.928a.93.93 0 0 0 .657 1.585.92.92 0 0 0 .425-.119l.641.641a7.39 7.39 0 0 0-1.994 5.05A7.44 7.44 0 0 0 32.071 39a7.44 7.44 0 0 0 7.429-7.429 7.39 7.39 0 0 0-1.995-5.049l.642-.642zm.425 5.69a6.51 6.51 0 0 1-6.5 6.5 6.51 6.51 0 0 1-6.5-6.5 6.51 6.51 0 0 1 6.5-6.5 6.51 6.51 0 0 1 6.5 6.5zM16.286 13h7.429c.739 0 1.447.293 1.97.816s.816 1.231.816 1.97V19.5a2.79 2.79 0 0 1-.816 1.97c-.522.523-1.231.816-1.97.816h-.929v2.321c0 .092-.027.182-.078.258a.46.46 0 0 1-.209.171c-.086.035-.178.044-.269.026a.46.46 0 0 1-.238-.127l-2.649-2.65h-3.058c-.739 0-1.447-.293-1.97-.816s-.816-1.231-.816-1.97v-3.714c0-.739.293-1.447.816-1.97S15.547 13 16.286 13zm20.428 19.036c-.123 0-.241-.049-.328-.136s-.136-.205-.136-.328.049-.241.136-.328.205-.136.328-.136h.905a5.57 5.57 0 0 0-1.613-3.471 5.58 5.58 0 0 0-3.471-1.613v.905c0 .123-.049.241-.136.328s-.205.136-.328.136-.241-.049-.328-.136-.136-.205-.136-.328v-.905a5.58 5.58 0 0 0-3.471 1.613 5.57 5.57 0 0 0-1.613 3.471h.905c.123 0 .241.049.328.136s.136.205.136.328-.049.241-.136.328-.205.136-.328.136h-.905c.111 1.311.683 2.541 1.613 3.471s2.16 1.502 3.471 1.613v-.905c0-.123.049-.241.136-.328s.205-.136.328-.136.241.049.328.136.136.205.136.328v.905c1.311-.111 2.541-.683 3.471-1.613s1.502-2.16 1.613-3.471h-.905zm-1.529-2.921l-2.231 2.23c.019.074.045.147.045.227a.93.93 0 0 1-1.585.657.93.93 0 0 1 .657-1.585c.08 0 .152.027.227.046l2.23-2.232c.043-.043.094-.078.151-.101s.117-.035.178-.035.121.012.178.035.108.058.151.101a.47.47 0 0 1 .101.151c.024.057.035.117.035.178a.47.47 0 0 1-.035.178c-.023.056-.058.108-.101.151z" fill="#fff"/></svg>