<svg xmlns="http://www.w3.org/2000/svg" width="53" height="53" fill="none" xmlns:v="https://vecta.io/nano"><path d="M22.5 2.309a8 8 0 0 1 8 0l14.95 8.631a8 8 0 0 1 4 6.928v17.262a8 8 0 0 1-4 6.928L30.5 50.691a8 8 0 0 1-8 0L7.55 42.059a8 8 0 0 1-4-6.928V17.869a8 8 0 0 1 4-6.928L22.5 2.309z" fill="#ab69fd"/><g fill="#fff"><path d="M28.74 24.022h-1.049l.006 2.154 1.042-.004c.602 0 1.11-.492 1.11-1.075s-.509-1.075-1.11-1.075zm-7.607 3.374h1.734l-.863-2.286-.871 2.286z"/><path d="M16.227 22.84c0-.404-.328-.732-.732-.732h-.762c-.405 0-.732.328-.732.732s.328.732.732.732h.762c.404 0 .732-.328.732-.732zm.382-5.879c.659 0 .988-.813.5-1.268l-.557-.52c-.296-.276-.759-.26-1.035.036s-.26.759.036 1.035c.45.368.61.716 1.056.716zm-.499 11.853l-.557.52a.73.73 0 0 0-.036 1.035c.276.296.739.312 1.035.036l.557-.52c.296-.276.312-.739.036-1.035s-.739-.312-1.035-.036zm22.159-6.808h-.762c-.404 0-.732.328-.732.732s.328.733.732.733h.762c.404 0 .732-.328.732-.733s-.328-.732-.732-.732zm-1.377 6.808c-.296-.276-.759-.26-1.035.036s-.26.759.036 1.035l.557.52c.297.276.76.259 1.035-.036a.73.73 0 0 0-.036-1.035l-.557-.52zm0-12.05l.557-.52c.296-.276.312-.739.036-1.035s-.739-.312-1.035-.036l-.557.52c-.296.276-.312.739-.036 1.035s.739.312 1.035.036zM22.35 33.849a2.2 2.2 0 0 0 1.35 2.026h5.601a2.2 2.2 0 0 0 1.35-2.026v-1.05H22.35v1.05zm1.465 4.419c0 .404.328.732.732.732h3.906c.404 0 .732-.328.732-.732v-.928h-5.371v.928zm11.159-15.478c2.084-2.127.88-5.716-2.036-6.18-.732-2.434-3.674-3.403-5.705-1.875v16.868h2.197a3.65 3.65 0 0 0 3.515-2.635c2.901-.468 4.117-4.047 2.029-6.179zm-6.277-4.346c0-.404.328-.733.732-.733s.732.328.732.733c0 .75.284.887.851 1.161.536.259 1.347.651 1.347 1.768 0 .404-.328.732-.732.732s-.732-.328-.732-.732c0-.161 0-.199-.519-.45-.628-.303-1.678-.811-1.678-2.48zm4.344 6.91c-.843 1.168-2.146 1.653-2.517 1.653-.319 0-.612-.209-.704-.531-.111-.389.114-.794.503-.905a2.87 2.87 0 0 0 1.53-1.074c.237-.328.695-.402 1.022-.165s.402.695.165 1.023zm-7.274 6.249V14.734c-2.031-1.528-4.973-.559-5.705 1.875-2.918.465-4.12 4.053-2.037 6.18-2.089 2.132-.87 5.711 2.029 6.179a3.65 3.65 0 0 0 3.515 2.635h2.197zm-3.78-11.998c.566-.274.851-.411.851-1.161 0-.404.328-.733.732-.733s.732.328.732.733c0 1.669-1.051 2.177-1.678 2.48-.519.251-.519.289-.519.45 0 .404-.328.732-.732.732s-.732-.328-.732-.732c0-1.118.81-1.509 1.347-1.768zm1.192 6.871c-.092.322-.385.531-.704.531-.382 0-1.6-.481-2.41-1.512-.25-.318-.195-.778.123-1.028s.779-.195 1.029.123a2.87 2.87 0 0 0 1.46.981c.389.111.614.517.503.906z"/></g></svg>